<svg width="40" height="40" viewBox="0 0 40 40" fill="none" xmlns="http://www.w3.org/2000/svg">
<g id="Icons/filters">
<path id="Icons/Filters" fill-rule="evenodd" clip-rule="evenodd" d="M24.2548 5.06159C21.5503 5.46276 19.459 7.16354 18.6621 9.60985L18.5339 10.0034L13.4386 10.0137L8.3434 10.024V12.2451V14.4662L13.6412 14.4765L18.9389 14.4867L19.1252 14.8399C22.1967 20.6624 30.9855 18.8256 31.6313 12.2262C32.0273 8.17896 28.2132 4.47436 24.2548 5.06159ZM25.7965 9.32721C28.0533 10.1138 28.0231 13.3397 25.7521 14.0667C23.9026 14.6588 22.0968 12.9585 22.5778 11.0778C22.9345 9.68319 24.4511 8.8583 25.7965 9.32721ZM14.0981 20.0774C9.27215 20.7737 6.75016 26.2622 9.40227 30.2968C12.331 34.7523 19.0039 34.1999 21.1092 29.3276L21.2837 28.9237L26.4744 28.9135L31.6652 28.9032V26.6824V24.4616L26.4733 24.4514L21.2814 24.4411L21.1289 24.0768C19.9922 21.3622 16.9981 19.659 14.0981 20.0774ZM15.7782 24.3195C17.5388 24.9075 18.0645 27.1023 16.762 28.4271C15.2006 30.0153 12.5148 28.9121 12.5148 26.6824C12.5148 24.9719 14.1615 23.7796 15.7782 24.3195Z" fill="#7C9B32"/>
</g>
</svg>
