<svg width="40" height="40" viewBox="0 0 40 40" fill="none" xmlns="http://www.w3.org/2000/svg">
<mask id="path-1-outside-1_3502_6713" maskUnits="userSpaceOnUse" x="0.666656" y="0.666992" width="38" height="38" fill="black">
<rect fill="white" x="0.666656" y="0.666992" width="38" height="38"/>
<path d="M12.0464 7.64249C11.9867 7.84836 11.8136 8.0065 11.5899 8.03932C10.8559 8.68379 10.1428 9.34617 9.4625 10.0533C12.5804 10.8798 15.6894 11.4139 18.7865 11.6287C21.1794 11.7958 23.5693 11.7719 25.9533 11.5511C27.0512 11.4228 28.197 11.2557 29.4143 11.0409C29.4979 11.026 29.5754 11.0111 29.65 10.9961C29.6709 10.9544 29.6769 10.8947 29.6649 10.8082C29.5784 10.2264 29.1339 9.80267 28.6744 9.376L28.6415 9.34915L28.4983 9.21489C28.3044 9.03288 28.1045 8.84789 27.8986 8.66291L27.827 8.65097C27.5794 8.61517 27.3944 8.41825 27.3616 8.18254L27.1527 8.00053C26.6962 7.6037 26.2218 7.20688 25.7295 6.81303L25.4818 6.61312C24.0676 5.47635 20.8601 2.88652 19.6309 2.78209C18.0346 2.64484 16.4204 3.99346 14.8779 5.28539C14.7705 5.3749 14.6839 5.44651 14.3617 5.71206L14.0037 6.00744C13.3413 6.55345 12.6849 7.0935 12.0464 7.64249ZM31.5655 28.0627C31.5327 27.7584 31.7505 27.4869 32.0549 27.4511C32.3592 27.4183 32.6307 27.6361 32.6665 27.9404C32.7411 28.5968 32.8247 29.6053 32.8187 30.5064C32.8157 31.1747 32.759 31.7923 32.6128 32.1892C32.5084 32.4756 32.1891 32.6248 31.9027 32.5174C31.6163 32.4129 31.4671 32.0937 31.5745 31.8072C31.6759 31.5357 31.7117 31.0494 31.7177 30.5004C31.7177 29.665 31.6342 28.6983 31.5655 28.0627ZM6.813 29.0533C6.84582 28.749 7.12032 28.5312 7.42466 28.564C7.72899 28.5968 7.9468 28.8713 7.91398 29.1756C7.85729 29.6888 7.84237 30.1722 7.87818 30.6227C7.911 31.0554 7.99155 31.4552 8.12582 31.8132C8.23025 32.0996 8.08405 32.4189 7.79762 32.5233C7.51118 32.6278 7.19193 32.4816 7.0875 32.1951C6.92042 31.7386 6.81897 31.2403 6.7772 30.7093C6.73245 30.1901 6.74736 29.6351 6.813 29.0533ZM33.0216 18.7925C31.5089 19.1445 30.0677 19.4548 28.6833 19.7174C27.6868 19.98 26.6753 20.1918 25.6519 20.3619C24.536 20.5439 23.4112 20.6692 22.2833 20.7378C21.0033 20.8154 19.6875 20.8184 18.3628 20.7498C14.299 20.6782 10.5575 19.9143 6.61907 18.3091C6.09692 19.8934 5.67324 21.6419 5.39278 23.5842C5.07651 25.7653 4.93926 28.1881 5.03175 30.8942C5.04369 31.2433 5.07651 31.5089 5.10336 31.7088C5.24061 32.7919 5.25254 32.8814 3.88006 33.2513C3.38178 33.3856 3.01479 33.5766 2.86561 33.9018C2.71642 34.23 2.73134 34.7253 2.97302 35.4682C3.47428 35.504 4.03819 35.4682 4.61105 35.4294C5.38681 35.3787 6.17748 35.328 6.9413 35.4354C7.99454 35.5846 9.13132 35.7725 10.3099 35.9665C11.7719 36.2082 13.3025 36.4618 14.8152 36.6647C17.9003 37.0764 20.7109 37.0943 23.5872 36.8437C26.4873 36.5901 29.4442 36.062 32.8097 35.3757C32.8485 35.3668 32.8873 35.3638 32.9231 35.3638L37.1152 35.4205C37.2405 34.8536 37.2614 34.4239 37.1629 34.0987C37.0585 33.7556 36.784 33.502 36.3155 33.2901L36.2499 33.2603C35.4085 32.8754 35.0714 32.7232 34.8923 32.2966C34.776 32.0221 34.7939 31.7774 34.8237 31.3716C34.8446 31.0822 34.8774 30.6854 34.8625 30.1483C34.8058 27.9225 34.5731 25.4192 34.1822 23.1934L34.1792 23.1755C33.8868 21.439 33.493 19.8875 33.0216 18.7925ZM18.685 19.6488C21.6657 19.6756 24.8433 19.3176 28.4267 18.6403C28.5132 18.6164 28.5998 18.5955 28.6863 18.5717L28.743 18.5597L33.3856 17.423C33.86 17.2827 34.1882 17.0112 34.4 16.6412C34.6357 16.2265 34.7461 15.6716 34.7581 15.0151C34.77 14.2871 34.5582 13.1444 34.2001 12.0762C33.9018 11.1931 33.5139 10.3815 33.0812 9.94887C33.0484 9.91605 33.0126 9.88323 32.9768 9.85339C32.4487 10.1488 32.2249 10.4561 32.0161 10.7395C31.67 11.2139 31.3567 11.6406 30.4258 11.936C30.2199 12.0792 29.9335 12.1449 29.6053 12.1926L29.3904 12.2224C29.2801 12.2373 29.1637 12.2523 29.098 12.2612C28.1105 12.4223 27.1229 12.5506 26.1353 12.6431C25.5594 12.7117 24.9925 12.7684 24.4405 12.8132C22.8353 12.9445 21.3047 12.9803 19.7711 12.9236C18.0018 12.8609 15.5492 12.6252 13.2309 12.2165C11.378 11.8883 9.59379 11.4467 8.27202 10.8798C7.6723 10.6232 7.20685 10.3457 6.88163 10.0503C6.79212 9.96677 6.70858 9.88323 6.63995 9.7967C6.05814 10.6978 5.27343 12.1269 4.87063 13.4815C4.6021 14.3796 4.50364 15.224 4.75726 15.8028C4.95716 16.2593 5.67026 16.692 6.53552 17.0739C6.69962 17.1425 6.86373 17.2111 7.02485 17.2768C8.1288 17.7124 9.36106 18.0615 10.0742 18.2614L10.2144 18.3002C12.1239 18.8402 14.1588 19.2341 16.2116 19.4638C16.9635 19.5473 17.7183 19.607 18.4702 19.6458L18.685 19.6488ZM34.036 18.3598C34.5433 19.5444 34.961 21.1794 35.2772 22.9845L35.2802 23.0054C35.677 25.273 35.9157 27.836 35.9724 30.1274C35.9873 30.7451 35.9575 31.1568 35.9336 31.4582C35.9157 31.6968 35.9038 31.8431 35.9157 31.8669C35.9307 31.8997 36.1544 32.0012 36.7154 32.2578L36.781 32.2876C37.5538 32.6397 38.0192 33.1081 38.2251 33.7824C38.4131 34.4001 38.3504 35.1519 38.0819 36.1306C38.0162 36.3663 37.7984 36.5394 37.5418 36.5364L32.9709 36.4737C29.5725 37.1629 26.5918 37.697 23.6857 37.9506C20.7408 38.2102 17.8556 38.1863 14.675 37.7627C13.1205 37.5568 11.5928 37.3032 10.1338 37.0615C8.9702 36.8676 7.84834 36.6826 6.78913 36.5334C6.13869 36.4409 5.40173 36.4886 4.67968 36.5364C3.91884 36.5871 3.17292 36.6348 2.48668 36.5304C2.29274 36.5006 2.12267 36.3723 2.04808 36.1753C1.5886 34.9491 1.56771 34.0808 1.86011 33.4453C2.17041 32.762 2.79102 32.398 3.59064 32.1832C4.03222 32.0638 4.02924 32.0489 4.00239 31.849C3.97255 31.6223 3.93675 31.3269 3.92183 30.93C3.82635 28.1493 3.96957 25.6639 4.2918 23.4291C4.59017 21.3674 5.04369 19.5145 5.60462 17.8347C4.72443 17.3872 3.9994 16.8561 3.73087 16.2504C3.35493 15.3971 3.45936 14.2901 3.79651 13.1653C4.24705 11.6525 5.12126 10.0772 5.74783 9.12239C6.07305 8.62412 6.46093 8.17657 6.9592 7.83345C7.46344 7.48734 8.06316 7.26058 8.80013 7.22179C9.21486 7.16809 9.66838 7.11736 10.1189 7.07261C10.4382 7.03979 10.7843 7.00697 11.1244 6.97713C11.8315 6.36548 12.5566 5.76576 13.2935 5.16008L13.6516 4.86469L14.1588 4.44101C15.8744 3.00587 17.6676 1.50508 19.7174 1.68112C21.2808 1.81538 24.6733 4.55141 26.1651 5.75681L26.4127 5.95672C26.905 6.35355 27.3914 6.75932 27.8658 7.17107C28.0359 7.31727 28.2059 7.46944 28.376 7.62161C29.2592 7.75885 30.2378 7.90804 31.124 8.08109L31.4343 8.14076C32.0817 8.26608 32.6546 8.37946 33.1767 8.66291C33.2901 8.68976 33.3945 8.7554 33.4721 8.84789C33.6034 8.94039 33.7317 9.05078 33.857 9.1761C34.415 9.73703 34.8923 10.7037 35.2384 11.7301C35.6323 12.9087 35.868 14.1946 35.8531 15.036C35.8382 15.8744 35.686 16.6054 35.3548 17.1902C35.0624 17.7094 34.6298 18.1092 34.036 18.3598ZM7.37692 8.90458C7.41272 9.00603 7.49627 9.11642 7.62158 9.23279C7.78568 9.38197 8.01244 9.53116 8.29589 9.67735C8.76731 9.17013 9.25066 8.68678 9.74595 8.22132C9.45952 8.25116 9.18204 8.28398 8.92544 8.31978L8.88367 8.32277C8.35556 8.34962 7.93785 8.50477 7.59174 8.74347C7.51715 8.7912 7.44554 8.84491 7.37692 8.90458ZM30.7391 10.5337C30.9002 10.3964 31.0106 10.2472 31.124 10.0891C31.3 9.84742 31.488 9.59083 31.7834 9.33423C31.6073 9.29544 31.4253 9.25964 31.2344 9.22085L30.927 9.1582C30.5839 9.09256 30.2169 9.02692 29.844 8.96426C30.2557 9.39092 30.6108 9.85936 30.7391 10.5337ZM24.7628 10.3487C24.9149 10.3487 25.0373 10.471 25.0373 10.6232C25.0373 10.7753 24.9149 10.8977 24.7628 10.8977C24.6106 10.8977 24.4883 10.7753 24.4883 10.6232C24.4883 10.471 24.6106 10.3487 24.7628 10.3487ZM18.0823 4.98404C18.2255 4.98404 18.3419 5.1004 18.3419 5.24362C18.3419 5.38684 18.2255 5.5032 18.0823 5.5032C17.9391 5.5032 17.8228 5.38684 17.8228 5.24362C17.8228 5.1004 17.9391 4.98404 18.0823 4.98404ZM21.2898 7.67531C21.433 7.67531 21.5494 7.79168 21.5494 7.93489C21.5494 8.07811 21.433 8.19447 21.2898 8.19447C21.1466 8.19447 21.0302 8.07811 21.0302 7.93489C21.0302 7.79168 21.1466 7.67531 21.2898 7.67531ZM18.6075 9.194C18.8163 9.194 18.9864 9.36407 18.9864 9.57293C18.9864 9.78178 18.8163 9.95185 18.6075 9.95185C18.3986 9.95185 18.2315 9.7788 18.2315 9.56994C18.2315 9.36109 18.3986 9.194 18.6075 9.194ZM18.4702 6.74441C18.6134 6.74441 18.7298 6.86077 18.7298 7.00399C18.7298 7.1472 18.6134 7.26357 18.4702 7.26357C18.327 7.26357 18.2106 7.1472 18.2106 7.00399C18.2106 6.86077 18.327 6.74441 18.4702 6.74441ZM16.4801 7.65144C16.689 7.65144 16.859 7.82151 16.859 8.03037C16.859 8.23923 16.689 8.4093 16.4801 8.4093C16.2712 8.4093 16.1012 8.23923 16.1012 8.03037C16.1012 7.82151 16.2712 7.65144 16.4801 7.65144ZM11.936 9.51922C12.0464 9.51922 12.1389 9.60873 12.1389 9.72211C12.1389 9.83251 12.0493 9.925 11.936 9.925C11.8256 9.925 11.7331 9.83549 11.7331 9.72211C11.7331 9.61171 11.8256 9.51922 11.936 9.51922ZM13.5561 9.26859C13.765 9.26859 13.935 9.43866 13.935 9.64752C13.935 9.85638 13.765 10.0264 13.5561 10.0264C13.3472 10.0264 13.1772 9.85638 13.1772 9.64752C13.1802 9.43866 13.3472 9.26859 13.5561 9.26859ZM15.6059 10.0205C15.7491 10.0205 15.8655 10.1368 15.8655 10.2801C15.8655 10.4233 15.7491 10.5396 15.6059 10.5396C15.4627 10.5396 15.3463 10.4233 15.3463 10.2801C15.3463 10.1368 15.4627 10.0205 15.6059 10.0205ZM14.3677 7.4038C14.5288 7.4038 14.6601 7.53508 14.6601 7.6962C14.6601 7.85732 14.5288 7.9886 14.3677 7.9886C14.2065 7.9886 14.0753 7.85732 14.0753 7.6962C14.0723 7.53508 14.2036 7.4038 14.3677 7.4038ZM20.7169 4.87961C20.8422 4.87961 20.9437 4.98106 20.9437 5.10637C20.9437 5.23168 20.8422 5.33313 20.7169 5.33313C20.5916 5.33313 20.4902 5.23168 20.4902 5.10637C20.4902 4.98106 20.5916 4.87961 20.7169 4.87961ZM21.2599 10.2055C21.3703 10.2055 21.4628 10.295 21.4628 10.4084C21.4628 10.5188 21.3733 10.6112 21.2599 10.6112C21.1495 10.6112 21.0571 10.5217 21.0571 10.4084C21.0571 10.295 21.1466 10.2055 21.2599 10.2055ZM24.8224 7.06068C24.9328 7.06068 25.0253 7.15019 25.0253 7.26357C25.0253 7.37694 24.9358 7.46645 24.8224 7.46645C24.7091 7.46645 24.6196 7.37694 24.6196 7.26357C24.6196 7.15019 24.712 7.06068 24.8224 7.06068ZM22.8055 8.96127C22.9785 8.96127 23.1158 9.10151 23.1158 9.27158C23.1158 9.44463 22.9756 9.58188 22.8055 9.58188C22.6324 9.58188 22.4952 9.44164 22.4952 9.27158C22.4922 9.09852 22.6324 8.96127 22.8055 8.96127ZM24.3958 8.62412C24.5778 8.62412 24.727 8.77032 24.727 8.95531C24.727 9.13731 24.5808 9.28649 24.3958 9.28649C24.2138 9.28649 24.0646 9.14029 24.0646 8.95531C24.0676 8.7733 24.2138 8.62412 24.3958 8.62412ZM26.4038 9.60575C26.541 9.60575 26.6514 9.71614 26.6514 9.85339C26.6514 9.99064 26.541 10.101 26.4038 10.101C26.2665 10.101 26.1561 9.99064 26.1561 9.85339C26.1561 9.71913 26.2665 9.60575 26.4038 9.60575ZM26.0398 8.13181C26.1919 8.13181 26.3143 8.25414 26.3143 8.40631C26.3143 8.55848 26.1919 8.68081 26.0398 8.68081C25.8876 8.68081 25.7653 8.55848 25.7653 8.40631C25.7653 8.25414 25.8876 8.13181 26.0398 8.13181Z"/>
</mask>
<path d="M12.0464 7.64249C11.9867 7.84836 11.8136 8.0065 11.5899 8.03932C10.8559 8.68379 10.1428 9.34617 9.4625 10.0533C12.5804 10.8798 15.6894 11.4139 18.7865 11.6287C21.1794 11.7958 23.5693 11.7719 25.9533 11.5511C27.0512 11.4228 28.197 11.2557 29.4143 11.0409C29.4979 11.026 29.5754 11.0111 29.65 10.9961C29.6709 10.9544 29.6769 10.8947 29.6649 10.8082C29.5784 10.2264 29.1339 9.80267 28.6744 9.376L28.6415 9.34915L28.4983 9.21489C28.3044 9.03288 28.1045 8.84789 27.8986 8.66291L27.827 8.65097C27.5794 8.61517 27.3944 8.41825 27.3616 8.18254L27.1527 8.00053C26.6962 7.6037 26.2218 7.20688 25.7295 6.81303L25.4818 6.61312C24.0676 5.47635 20.8601 2.88652 19.6309 2.78209C18.0346 2.64484 16.4204 3.99346 14.8779 5.28539C14.7705 5.3749 14.6839 5.44651 14.3617 5.71206L14.0037 6.00744C13.3413 6.55345 12.6849 7.0935 12.0464 7.64249ZM31.5655 28.0627C31.5327 27.7584 31.7505 27.4869 32.0549 27.4511C32.3592 27.4183 32.6307 27.6361 32.6665 27.9404C32.7411 28.5968 32.8247 29.6053 32.8187 30.5064C32.8157 31.1747 32.759 31.7923 32.6128 32.1892C32.5084 32.4756 32.1891 32.6248 31.9027 32.5174C31.6163 32.4129 31.4671 32.0937 31.5745 31.8072C31.6759 31.5357 31.7117 31.0494 31.7177 30.5004C31.7177 29.665 31.6342 28.6983 31.5655 28.0627ZM6.813 29.0533C6.84582 28.749 7.12032 28.5312 7.42466 28.564C7.72899 28.5968 7.9468 28.8713 7.91398 29.1756C7.85729 29.6888 7.84237 30.1722 7.87818 30.6227C7.911 31.0554 7.99155 31.4552 8.12582 31.8132C8.23025 32.0996 8.08405 32.4189 7.79762 32.5233C7.51118 32.6278 7.19193 32.4816 7.0875 32.1951C6.92042 31.7386 6.81897 31.2403 6.7772 30.7093C6.73245 30.1901 6.74736 29.6351 6.813 29.0533ZM33.0216 18.7925C31.5089 19.1445 30.0677 19.4548 28.6833 19.7174C27.6868 19.98 26.6753 20.1918 25.6519 20.3619C24.536 20.5439 23.4112 20.6692 22.2833 20.7378C21.0033 20.8154 19.6875 20.8184 18.3628 20.7498C14.299 20.6782 10.5575 19.9143 6.61907 18.3091C6.09692 19.8934 5.67324 21.6419 5.39278 23.5842C5.07651 25.7653 4.93926 28.1881 5.03175 30.8942C5.04369 31.2433 5.07651 31.5089 5.10336 31.7088C5.24061 32.7919 5.25254 32.8814 3.88006 33.2513C3.38178 33.3856 3.01479 33.5766 2.86561 33.9018C2.71642 34.23 2.73134 34.7253 2.97302 35.4682C3.47428 35.504 4.03819 35.4682 4.61105 35.4294C5.38681 35.3787 6.17748 35.328 6.9413 35.4354C7.99454 35.5846 9.13132 35.7725 10.3099 35.9665C11.7719 36.2082 13.3025 36.4618 14.8152 36.6647C17.9003 37.0764 20.7109 37.0943 23.5872 36.8437C26.4873 36.5901 29.4442 36.062 32.8097 35.3757C32.8485 35.3668 32.8873 35.3638 32.9231 35.3638L37.1152 35.4205C37.2405 34.8536 37.2614 34.4239 37.1629 34.0987C37.0585 33.7556 36.784 33.502 36.3155 33.2901L36.2499 33.2603C35.4085 32.8754 35.0714 32.7232 34.8923 32.2966C34.776 32.0221 34.7939 31.7774 34.8237 31.3716C34.8446 31.0822 34.8774 30.6854 34.8625 30.1483C34.8058 27.9225 34.5731 25.4192 34.1822 23.1934L34.1792 23.1755C33.8868 21.439 33.493 19.8875 33.0216 18.7925ZM18.685 19.6488C21.6657 19.6756 24.8433 19.3176 28.4267 18.6403C28.5132 18.6164 28.5998 18.5955 28.6863 18.5717L28.743 18.5597L33.3856 17.423C33.86 17.2827 34.1882 17.0112 34.4 16.6412C34.6357 16.2265 34.7461 15.6716 34.7581 15.0151C34.77 14.2871 34.5582 13.1444 34.2001 12.0762C33.9018 11.1931 33.5139 10.3815 33.0812 9.94887C33.0484 9.91605 33.0126 9.88323 32.9768 9.85339C32.4487 10.1488 32.2249 10.4561 32.0161 10.7395C31.67 11.2139 31.3567 11.6406 30.4258 11.936C30.2199 12.0792 29.9335 12.1449 29.6053 12.1926L29.3904 12.2224C29.2801 12.2373 29.1637 12.2523 29.098 12.2612C28.1105 12.4223 27.1229 12.5506 26.1353 12.6431C25.5594 12.7117 24.9925 12.7684 24.4405 12.8132C22.8353 12.9445 21.3047 12.9803 19.7711 12.9236C18.0018 12.8609 15.5492 12.6252 13.2309 12.2165C11.378 11.8883 9.59379 11.4467 8.27202 10.8798C7.6723 10.6232 7.20685 10.3457 6.88163 10.0503C6.79212 9.96677 6.70858 9.88323 6.63995 9.7967C6.05814 10.6978 5.27343 12.1269 4.87063 13.4815C4.6021 14.3796 4.50364 15.224 4.75726 15.8028C4.95716 16.2593 5.67026 16.692 6.53552 17.0739C6.69962 17.1425 6.86373 17.2111 7.02485 17.2768C8.1288 17.7124 9.36106 18.0615 10.0742 18.2614L10.2144 18.3002C12.1239 18.8402 14.1588 19.2341 16.2116 19.4638C16.9635 19.5473 17.7183 19.607 18.4702 19.6458L18.685 19.6488ZM34.036 18.3598C34.5433 19.5444 34.961 21.1794 35.2772 22.9845L35.2802 23.0054C35.677 25.273 35.9157 27.836 35.9724 30.1274C35.9873 30.7451 35.9575 31.1568 35.9336 31.4582C35.9157 31.6968 35.9038 31.8431 35.9157 31.8669C35.9307 31.8997 36.1544 32.0012 36.7154 32.2578L36.781 32.2876C37.5538 32.6397 38.0192 33.1081 38.2251 33.7824C38.4131 34.4001 38.3504 35.1519 38.0819 36.1306C38.0162 36.3663 37.7984 36.5394 37.5418 36.5364L32.9709 36.4737C29.5725 37.1629 26.5918 37.697 23.6857 37.9506C20.7408 38.2102 17.8556 38.1863 14.675 37.7627C13.1205 37.5568 11.5928 37.3032 10.1338 37.0615C8.9702 36.8676 7.84834 36.6826 6.78913 36.5334C6.13869 36.4409 5.40173 36.4886 4.67968 36.5364C3.91884 36.5871 3.17292 36.6348 2.48668 36.5304C2.29274 36.5006 2.12267 36.3723 2.04808 36.1753C1.5886 34.9491 1.56771 34.0808 1.86011 33.4453C2.17041 32.762 2.79102 32.398 3.59064 32.1832C4.03222 32.0638 4.02924 32.0489 4.00239 31.849C3.97255 31.6223 3.93675 31.3269 3.92183 30.93C3.82635 28.1493 3.96957 25.6639 4.2918 23.4291C4.59017 21.3674 5.04369 19.5145 5.60462 17.8347C4.72443 17.3872 3.9994 16.8561 3.73087 16.2504C3.35493 15.3971 3.45936 14.2901 3.79651 13.1653C4.24705 11.6525 5.12126 10.0772 5.74783 9.12239C6.07305 8.62412 6.46093 8.17657 6.9592 7.83345C7.46344 7.48734 8.06316 7.26058 8.80013 7.22179C9.21486 7.16809 9.66838 7.11736 10.1189 7.07261C10.4382 7.03979 10.7843 7.00697 11.1244 6.97713C11.8315 6.36548 12.5566 5.76576 13.2935 5.16008L13.6516 4.86469L14.1588 4.44101C15.8744 3.00587 17.6676 1.50508 19.7174 1.68112C21.2808 1.81538 24.6733 4.55141 26.1651 5.75681L26.4127 5.95672C26.905 6.35355 27.3914 6.75932 27.8658 7.17107C28.0359 7.31727 28.2059 7.46944 28.376 7.62161C29.2592 7.75885 30.2378 7.90804 31.124 8.08109L31.4343 8.14076C32.0817 8.26608 32.6546 8.37946 33.1767 8.66291C33.2901 8.68976 33.3945 8.7554 33.4721 8.84789C33.6034 8.94039 33.7317 9.05078 33.857 9.1761C34.415 9.73703 34.8923 10.7037 35.2384 11.7301C35.6323 12.9087 35.868 14.1946 35.8531 15.036C35.8382 15.8744 35.686 16.6054 35.3548 17.1902C35.0624 17.7094 34.6298 18.1092 34.036 18.3598ZM7.37692 8.90458C7.41272 9.00603 7.49627 9.11642 7.62158 9.23279C7.78568 9.38197 8.01244 9.53116 8.29589 9.67735C8.76731 9.17013 9.25066 8.68678 9.74595 8.22132C9.45952 8.25116 9.18204 8.28398 8.92544 8.31978L8.88367 8.32277C8.35556 8.34962 7.93785 8.50477 7.59174 8.74347C7.51715 8.7912 7.44554 8.84491 7.37692 8.90458ZM30.7391 10.5337C30.9002 10.3964 31.0106 10.2472 31.124 10.0891C31.3 9.84742 31.488 9.59083 31.7834 9.33423C31.6073 9.29544 31.4253 9.25964 31.2344 9.22085L30.927 9.1582C30.5839 9.09256 30.2169 9.02692 29.844 8.96426C30.2557 9.39092 30.6108 9.85936 30.7391 10.5337ZM24.7628 10.3487C24.9149 10.3487 25.0373 10.471 25.0373 10.6232C25.0373 10.7753 24.9149 10.8977 24.7628 10.8977C24.6106 10.8977 24.4883 10.7753 24.4883 10.6232C24.4883 10.471 24.6106 10.3487 24.7628 10.3487ZM18.0823 4.98404C18.2255 4.98404 18.3419 5.1004 18.3419 5.24362C18.3419 5.38684 18.2255 5.5032 18.0823 5.5032C17.9391 5.5032 17.8228 5.38684 17.8228 5.24362C17.8228 5.1004 17.9391 4.98404 18.0823 4.98404ZM21.2898 7.67531C21.433 7.67531 21.5494 7.79168 21.5494 7.93489C21.5494 8.07811 21.433 8.19447 21.2898 8.19447C21.1466 8.19447 21.0302 8.07811 21.0302 7.93489C21.0302 7.79168 21.1466 7.67531 21.2898 7.67531ZM18.6075 9.194C18.8163 9.194 18.9864 9.36407 18.9864 9.57293C18.9864 9.78178 18.8163 9.95185 18.6075 9.95185C18.3986 9.95185 18.2315 9.7788 18.2315 9.56994C18.2315 9.36109 18.3986 9.194 18.6075 9.194ZM18.4702 6.74441C18.6134 6.74441 18.7298 6.86077 18.7298 7.00399C18.7298 7.1472 18.6134 7.26357 18.4702 7.26357C18.327 7.26357 18.2106 7.1472 18.2106 7.00399C18.2106 6.86077 18.327 6.74441 18.4702 6.74441ZM16.4801 7.65144C16.689 7.65144 16.859 7.82151 16.859 8.03037C16.859 8.23923 16.689 8.4093 16.4801 8.4093C16.2712 8.4093 16.1012 8.23923 16.1012 8.03037C16.1012 7.82151 16.2712 7.65144 16.4801 7.65144ZM11.936 9.51922C12.0464 9.51922 12.1389 9.60873 12.1389 9.72211C12.1389 9.83251 12.0493 9.925 11.936 9.925C11.8256 9.925 11.7331 9.83549 11.7331 9.72211C11.7331 9.61171 11.8256 9.51922 11.936 9.51922ZM13.5561 9.26859C13.765 9.26859 13.935 9.43866 13.935 9.64752C13.935 9.85638 13.765 10.0264 13.5561 10.0264C13.3472 10.0264 13.1772 9.85638 13.1772 9.64752C13.1802 9.43866 13.3472 9.26859 13.5561 9.26859ZM15.6059 10.0205C15.7491 10.0205 15.8655 10.1368 15.8655 10.2801C15.8655 10.4233 15.7491 10.5396 15.6059 10.5396C15.4627 10.5396 15.3463 10.4233 15.3463 10.2801C15.3463 10.1368 15.4627 10.0205 15.6059 10.0205ZM14.3677 7.4038C14.5288 7.4038 14.6601 7.53508 14.6601 7.6962C14.6601 7.85732 14.5288 7.9886 14.3677 7.9886C14.2065 7.9886 14.0753 7.85732 14.0753 7.6962C14.0723 7.53508 14.2036 7.4038 14.3677 7.4038ZM20.7169 4.87961C20.8422 4.87961 20.9437 4.98106 20.9437 5.10637C20.9437 5.23168 20.8422 5.33313 20.7169 5.33313C20.5916 5.33313 20.4902 5.23168 20.4902 5.10637C20.4902 4.98106 20.5916 4.87961 20.7169 4.87961ZM21.2599 10.2055C21.3703 10.2055 21.4628 10.295 21.4628 10.4084C21.4628 10.5188 21.3733 10.6112 21.2599 10.6112C21.1495 10.6112 21.0571 10.5217 21.0571 10.4084C21.0571 10.295 21.1466 10.2055 21.2599 10.2055ZM24.8224 7.06068C24.9328 7.06068 25.0253 7.15019 25.0253 7.26357C25.0253 7.37694 24.9358 7.46645 24.8224 7.46645C24.7091 7.46645 24.6196 7.37694 24.6196 7.26357C24.6196 7.15019 24.712 7.06068 24.8224 7.06068ZM22.8055 8.96127C22.9785 8.96127 23.1158 9.10151 23.1158 9.27158C23.1158 9.44463 22.9756 9.58188 22.8055 9.58188C22.6324 9.58188 22.4952 9.44164 22.4952 9.27158C22.4922 9.09852 22.6324 8.96127 22.8055 8.96127ZM24.3958 8.62412C24.5778 8.62412 24.727 8.77032 24.727 8.95531C24.727 9.13731 24.5808 9.28649 24.3958 9.28649C24.2138 9.28649 24.0646 9.14029 24.0646 8.95531C24.0676 8.7733 24.2138 8.62412 24.3958 8.62412ZM26.4038 9.60575C26.541 9.60575 26.6514 9.71614 26.6514 9.85339C26.6514 9.99064 26.541 10.101 26.4038 10.101C26.2665 10.101 26.1561 9.99064 26.1561 9.85339C26.1561 9.71913 26.2665 9.60575 26.4038 9.60575ZM26.0398 8.13181C26.1919 8.13181 26.3143 8.25414 26.3143 8.40631C26.3143 8.55848 26.1919 8.68081 26.0398 8.68081C25.8876 8.68081 25.7653 8.55848 25.7653 8.40631C25.7653 8.25414 25.8876 8.13181 26.0398 8.13181Z" fill="#7C9B32"/>
<path d="M12.0464 7.64249C11.9867 7.84836 11.8136 8.0065 11.5899 8.03932C10.8559 8.68379 10.1428 9.34617 9.4625 10.0533C12.5804 10.8798 15.6894 11.4139 18.7865 11.6287C21.1794 11.7958 23.5693 11.7719 25.9533 11.5511C27.0512 11.4228 28.197 11.2557 29.4143 11.0409C29.4979 11.026 29.5754 11.0111 29.65 10.9961C29.6709 10.9544 29.6769 10.8947 29.6649 10.8082C29.5784 10.2264 29.1339 9.80267 28.6744 9.376L28.6415 9.34915L28.4983 9.21489C28.3044 9.03288 28.1045 8.84789 27.8986 8.66291L27.827 8.65097C27.5794 8.61517 27.3944 8.41825 27.3616 8.18254L27.1527 8.00053C26.6962 7.6037 26.2218 7.20688 25.7295 6.81303L25.4818 6.61312C24.0676 5.47635 20.8601 2.88652 19.6309 2.78209C18.0346 2.64484 16.4204 3.99346 14.8779 5.28539C14.7705 5.3749 14.6839 5.44651 14.3617 5.71206L14.0037 6.00744C13.3413 6.55345 12.6849 7.0935 12.0464 7.64249ZM31.5655 28.0627C31.5327 27.7584 31.7505 27.4869 32.0549 27.4511C32.3592 27.4183 32.6307 27.6361 32.6665 27.9404C32.7411 28.5968 32.8247 29.6053 32.8187 30.5064C32.8157 31.1747 32.759 31.7923 32.6128 32.1892C32.5084 32.4756 32.1891 32.6248 31.9027 32.5174C31.6163 32.4129 31.4671 32.0937 31.5745 31.8072C31.6759 31.5357 31.7117 31.0494 31.7177 30.5004C31.7177 29.665 31.6342 28.6983 31.5655 28.0627ZM6.813 29.0533C6.84582 28.749 7.12032 28.5312 7.42466 28.564C7.72899 28.5968 7.9468 28.8713 7.91398 29.1756C7.85729 29.6888 7.84237 30.1722 7.87818 30.6227C7.911 31.0554 7.99155 31.4552 8.12582 31.8132C8.23025 32.0996 8.08405 32.4189 7.79762 32.5233C7.51118 32.6278 7.19193 32.4816 7.0875 32.1951C6.92042 31.7386 6.81897 31.2403 6.7772 30.7093C6.73245 30.1901 6.74736 29.6351 6.813 29.0533ZM33.0216 18.7925C31.5089 19.1445 30.0677 19.4548 28.6833 19.7174C27.6868 19.98 26.6753 20.1918 25.6519 20.3619C24.536 20.5439 23.4112 20.6692 22.2833 20.7378C21.0033 20.8154 19.6875 20.8184 18.3628 20.7498C14.299 20.6782 10.5575 19.9143 6.61907 18.3091C6.09692 19.8934 5.67324 21.6419 5.39278 23.5842C5.07651 25.7653 4.93926 28.1881 5.03175 30.8942C5.04369 31.2433 5.07651 31.5089 5.10336 31.7088C5.24061 32.7919 5.25254 32.8814 3.88006 33.2513C3.38178 33.3856 3.01479 33.5766 2.86561 33.9018C2.71642 34.23 2.73134 34.7253 2.97302 35.4682C3.47428 35.504 4.03819 35.4682 4.61105 35.4294C5.38681 35.3787 6.17748 35.328 6.9413 35.4354C7.99454 35.5846 9.13132 35.7725 10.3099 35.9665C11.7719 36.2082 13.3025 36.4618 14.8152 36.6647C17.9003 37.0764 20.7109 37.0943 23.5872 36.8437C26.4873 36.5901 29.4442 36.062 32.8097 35.3757C32.8485 35.3668 32.8873 35.3638 32.9231 35.3638L37.1152 35.4205C37.2405 34.8536 37.2614 34.4239 37.1629 34.0987C37.0585 33.7556 36.784 33.502 36.3155 33.2901L36.2499 33.2603C35.4085 32.8754 35.0714 32.7232 34.8923 32.2966C34.776 32.0221 34.7939 31.7774 34.8237 31.3716C34.8446 31.0822 34.8774 30.6854 34.8625 30.1483C34.8058 27.9225 34.5731 25.4192 34.1822 23.1934L34.1792 23.1755C33.8868 21.439 33.493 19.8875 33.0216 18.7925ZM18.685 19.6488C21.6657 19.6756 24.8433 19.3176 28.4267 18.6403C28.5132 18.6164 28.5998 18.5955 28.6863 18.5717L28.743 18.5597L33.3856 17.423C33.86 17.2827 34.1882 17.0112 34.4 16.6412C34.6357 16.2265 34.7461 15.6716 34.7581 15.0151C34.77 14.2871 34.5582 13.1444 34.2001 12.0762C33.9018 11.1931 33.5139 10.3815 33.0812 9.94887C33.0484 9.91605 33.0126 9.88323 32.9768 9.85339C32.4487 10.1488 32.2249 10.4561 32.0161 10.7395C31.67 11.2139 31.3567 11.6406 30.4258 11.936C30.2199 12.0792 29.9335 12.1449 29.6053 12.1926L29.3904 12.2224C29.2801 12.2373 29.1637 12.2523 29.098 12.2612C28.1105 12.4223 27.1229 12.5506 26.1353 12.6431C25.5594 12.7117 24.9925 12.7684 24.4405 12.8132C22.8353 12.9445 21.3047 12.9803 19.7711 12.9236C18.0018 12.8609 15.5492 12.6252 13.2309 12.2165C11.378 11.8883 9.59379 11.4467 8.27202 10.8798C7.6723 10.6232 7.20685 10.3457 6.88163 10.0503C6.79212 9.96677 6.70858 9.88323 6.63995 9.7967C6.05814 10.6978 5.27343 12.1269 4.87063 13.4815C4.6021 14.3796 4.50364 15.224 4.75726 15.8028C4.95716 16.2593 5.67026 16.692 6.53552 17.0739C6.69962 17.1425 6.86373 17.2111 7.02485 17.2768C8.1288 17.7124 9.36106 18.0615 10.0742 18.2614L10.2144 18.3002C12.1239 18.8402 14.1588 19.2341 16.2116 19.4638C16.9635 19.5473 17.7183 19.607 18.4702 19.6458L18.685 19.6488ZM34.036 18.3598C34.5433 19.5444 34.961 21.1794 35.2772 22.9845L35.2802 23.0054C35.677 25.273 35.9157 27.836 35.9724 30.1274C35.9873 30.7451 35.9575 31.1568 35.9336 31.4582C35.9157 31.6968 35.9038 31.8431 35.9157 31.8669C35.9307 31.8997 36.1544 32.0012 36.7154 32.2578L36.781 32.2876C37.5538 32.6397 38.0192 33.1081 38.2251 33.7824C38.4131 34.4001 38.3504 35.1519 38.0819 36.1306C38.0162 36.3663 37.7984 36.5394 37.5418 36.5364L32.9709 36.4737C29.5725 37.1629 26.5918 37.697 23.6857 37.9506C20.7408 38.2102 17.8556 38.1863 14.675 37.7627C13.1205 37.5568 11.5928 37.3032 10.1338 37.0615C8.9702 36.8676 7.84834 36.6826 6.78913 36.5334C6.13869 36.4409 5.40173 36.4886 4.67968 36.5364C3.91884 36.5871 3.17292 36.6348 2.48668 36.5304C2.29274 36.5006 2.12267 36.3723 2.04808 36.1753C1.5886 34.9491 1.56771 34.0808 1.86011 33.4453C2.17041 32.762 2.79102 32.398 3.59064 32.1832C4.03222 32.0638 4.02924 32.0489 4.00239 31.849C3.97255 31.6223 3.93675 31.3269 3.92183 30.93C3.82635 28.1493 3.96957 25.6639 4.2918 23.4291C4.59017 21.3674 5.04369 19.5145 5.60462 17.8347C4.72443 17.3872 3.9994 16.8561 3.73087 16.2504C3.35493 15.3971 3.45936 14.2901 3.79651 13.1653C4.24705 11.6525 5.12126 10.0772 5.74783 9.12239C6.07305 8.62412 6.46093 8.17657 6.9592 7.83345C7.46344 7.48734 8.06316 7.26058 8.80013 7.22179C9.21486 7.16809 9.66838 7.11736 10.1189 7.07261C10.4382 7.03979 10.7843 7.00697 11.1244 6.97713C11.8315 6.36548 12.5566 5.76576 13.2935 5.16008L13.6516 4.86469L14.1588 4.44101C15.8744 3.00587 17.6676 1.50508 19.7174 1.68112C21.2808 1.81538 24.6733 4.55141 26.1651 5.75681L26.4127 5.95672C26.905 6.35355 27.3914 6.75932 27.8658 7.17107C28.0359 7.31727 28.2059 7.46944 28.376 7.62161C29.2592 7.75885 30.2378 7.90804 31.124 8.08109L31.4343 8.14076C32.0817 8.26608 32.6546 8.37946 33.1767 8.66291C33.2901 8.68976 33.3945 8.7554 33.4721 8.84789C33.6034 8.94039 33.7317 9.05078 33.857 9.1761C34.415 9.73703 34.8923 10.7037 35.2384 11.7301C35.6323 12.9087 35.868 14.1946 35.8531 15.036C35.8382 15.8744 35.686 16.6054 35.3548 17.1902C35.0624 17.7094 34.6298 18.1092 34.036 18.3598ZM7.37692 8.90458C7.41272 9.00603 7.49627 9.11642 7.62158 9.23279C7.78568 9.38197 8.01244 9.53116 8.29589 9.67735C8.76731 9.17013 9.25066 8.68678 9.74595 8.22132C9.45952 8.25116 9.18204 8.28398 8.92544 8.31978L8.88367 8.32277C8.35556 8.34962 7.93785 8.50477 7.59174 8.74347C7.51715 8.7912 7.44554 8.84491 7.37692 8.90458ZM30.7391 10.5337C30.9002 10.3964 31.0106 10.2472 31.124 10.0891C31.3 9.84742 31.488 9.59083 31.7834 9.33423C31.6073 9.29544 31.4253 9.25964 31.2344 9.22085L30.927 9.1582C30.5839 9.09256 30.2169 9.02692 29.844 8.96426C30.2557 9.39092 30.6108 9.85936 30.7391 10.5337ZM24.7628 10.3487C24.9149 10.3487 25.0373 10.471 25.0373 10.6232C25.0373 10.7753 24.9149 10.8977 24.7628 10.8977C24.6106 10.8977 24.4883 10.7753 24.4883 10.6232C24.4883 10.471 24.6106 10.3487 24.7628 10.3487ZM18.0823 4.98404C18.2255 4.98404 18.3419 5.1004 18.3419 5.24362C18.3419 5.38684 18.2255 5.5032 18.0823 5.5032C17.9391 5.5032 17.8228 5.38684 17.8228 5.24362C17.8228 5.1004 17.9391 4.98404 18.0823 4.98404ZM21.2898 7.67531C21.433 7.67531 21.5494 7.79168 21.5494 7.93489C21.5494 8.07811 21.433 8.19447 21.2898 8.19447C21.1466 8.19447 21.0302 8.07811 21.0302 7.93489C21.0302 7.79168 21.1466 7.67531 21.2898 7.67531ZM18.6075 9.194C18.8163 9.194 18.9864 9.36407 18.9864 9.57293C18.9864 9.78178 18.8163 9.95185 18.6075 9.95185C18.3986 9.95185 18.2315 9.7788 18.2315 9.56994C18.2315 9.36109 18.3986 9.194 18.6075 9.194ZM18.4702 6.74441C18.6134 6.74441 18.7298 6.86077 18.7298 7.00399C18.7298 7.1472 18.6134 7.26357 18.4702 7.26357C18.327 7.26357 18.2106 7.1472 18.2106 7.00399C18.2106 6.86077 18.327 6.74441 18.4702 6.74441ZM16.4801 7.65144C16.689 7.65144 16.859 7.82151 16.859 8.03037C16.859 8.23923 16.689 8.4093 16.4801 8.4093C16.2712 8.4093 16.1012 8.23923 16.1012 8.03037C16.1012 7.82151 16.2712 7.65144 16.4801 7.65144ZM11.936 9.51922C12.0464 9.51922 12.1389 9.60873 12.1389 9.72211C12.1389 9.83251 12.0493 9.925 11.936 9.925C11.8256 9.925 11.7331 9.83549 11.7331 9.72211C11.7331 9.61171 11.8256 9.51922 11.936 9.51922ZM13.5561 9.26859C13.765 9.26859 13.935 9.43866 13.935 9.64752C13.935 9.85638 13.765 10.0264 13.5561 10.0264C13.3472 10.0264 13.1772 9.85638 13.1772 9.64752C13.1802 9.43866 13.3472 9.26859 13.5561 9.26859ZM15.6059 10.0205C15.7491 10.0205 15.8655 10.1368 15.8655 10.2801C15.8655 10.4233 15.7491 10.5396 15.6059 10.5396C15.4627 10.5396 15.3463 10.4233 15.3463 10.2801C15.3463 10.1368 15.4627 10.0205 15.6059 10.0205ZM14.3677 7.4038C14.5288 7.4038 14.6601 7.53508 14.6601 7.6962C14.6601 7.85732 14.5288 7.9886 14.3677 7.9886C14.2065 7.9886 14.0753 7.85732 14.0753 7.6962C14.0723 7.53508 14.2036 7.4038 14.3677 7.4038ZM20.7169 4.87961C20.8422 4.87961 20.9437 4.98106 20.9437 5.10637C20.9437 5.23168 20.8422 5.33313 20.7169 5.33313C20.5916 5.33313 20.4902 5.23168 20.4902 5.10637C20.4902 4.98106 20.5916 4.87961 20.7169 4.87961ZM21.2599 10.2055C21.3703 10.2055 21.4628 10.295 21.4628 10.4084C21.4628 10.5188 21.3733 10.6112 21.2599 10.6112C21.1495 10.6112 21.0571 10.5217 21.0571 10.4084C21.0571 10.295 21.1466 10.2055 21.2599 10.2055ZM24.8224 7.06068C24.9328 7.06068 25.0253 7.15019 25.0253 7.26357C25.0253 7.37694 24.9358 7.46645 24.8224 7.46645C24.7091 7.46645 24.6196 7.37694 24.6196 7.26357C24.6196 7.15019 24.712 7.06068 24.8224 7.06068ZM22.8055 8.96127C22.9785 8.96127 23.1158 9.10151 23.1158 9.27158C23.1158 9.44463 22.9756 9.58188 22.8055 9.58188C22.6324 9.58188 22.4952 9.44164 22.4952 9.27158C22.4922 9.09852 22.6324 8.96127 22.8055 8.96127ZM24.3958 8.62412C24.5778 8.62412 24.727 8.77032 24.727 8.95531C24.727 9.13731 24.5808 9.28649 24.3958 9.28649C24.2138 9.28649 24.0646 9.14029 24.0646 8.95531C24.0676 8.7733 24.2138 8.62412 24.3958 8.62412ZM26.4038 9.60575C26.541 9.60575 26.6514 9.71614 26.6514 9.85339C26.6514 9.99064 26.541 10.101 26.4038 10.101C26.2665 10.101 26.1561 9.99064 26.1561 9.85339C26.1561 9.71913 26.2665 9.60575 26.4038 9.60575ZM26.0398 8.13181C26.1919 8.13181 26.3143 8.25414 26.3143 8.40631C26.3143 8.55848 26.1919 8.68081 26.0398 8.68081C25.8876 8.68081 25.7653 8.55848 25.7653 8.40631C25.7653 8.25414 25.8876 8.13181 26.0398 8.13181Z" stroke="#7C9B32" stroke-width="0.6" mask="url(#path-1-outside-1_3502_6713)"/>
<path fill-rule="evenodd" clip-rule="evenodd" d="M13.1367 24.3721H16.5612C16.67 23.9037 16.9095 23.5219 17.2436 23.2317C17.4064 23.0903 17.5798 22.9813 17.7543 22.8994C17.8169 22.8701 17.8761 22.846 17.931 22.8266C17.9682 22.8133 17.9989 22.8039 18.0219 22.7977L18.0976 22.7773H21.9024L21.9781 22.7977C22.0011 22.8039 22.0317 22.8133 22.069 22.8266C22.1238 22.846 22.1831 22.8701 22.2456 22.8994C22.4202 22.9813 22.5936 23.0903 22.7564 23.2317C23.0905 23.5219 23.33 23.9037 23.4388 24.3721H26.8633L26.932 24.8884C26.9344 24.9066 26.937 24.9311 26.9392 24.9615C26.951 25.1258 26.9441 25.3224 26.9062 25.5409C26.8513 25.8572 26.7386 26.1696 26.5543 26.4631C26.0413 27.28 25.0886 27.7908 23.6597 27.8992C23.6549 28.1956 23.6377 28.3666 23.5921 28.5856C23.4981 29.0363 23.2919 29.4577 22.903 29.9905L22.9131 30.1232C22.9476 30.5825 22.956 30.8725 22.9289 31.2003C22.8738 31.8662 22.6665 32.4219 22.2373 32.85C21.7386 33.3475 20.9982 33.6008 20.0093 33.6039C20.0062 33.6039 20.0031 33.604 20 33.604C19.9969 33.604 19.9938 33.604 19.9907 33.604C19.0017 33.6008 18.2614 33.3475 17.7626 32.85C17.3335 32.4219 17.1262 31.8662 17.0711 31.2003C17.044 30.8725 17.0524 30.5825 17.0869 30.1232L17.097 29.9905C16.708 29.4577 16.5018 29.0363 16.4079 28.5856C16.3623 28.3666 16.3451 28.1956 16.3402 27.8992C14.9114 27.7908 13.9587 27.28 13.4457 26.4631C13.2614 26.1696 13.1487 25.8572 13.0938 25.5409C13.0558 25.3224 13.049 25.1258 13.0608 24.9615C13.063 24.9311 13.0655 24.9066 13.068 24.8884L13.1367 24.3721ZM20 32.4142C20.7011 32.4129 21.1431 32.2621 21.3988 32.0071C21.601 31.8054 21.711 31.5104 21.7448 31.1021C21.7654 30.8535 21.7584 30.6132 21.7283 30.2125L21.7211 30.1174L21.7141 30.0236C21.7089 29.9521 21.7051 29.8942 21.7024 29.84L21.6912 29.6205L21.8252 29.4464C22.2031 28.9554 22.3663 28.6435 22.429 28.3426C22.468 28.155 22.4751 27.9965 22.4728 27.5224C22.4724 27.4314 22.4723 27.3835 22.4723 27.326V26.7311H23.0663C23.8263 26.7311 24.4119 26.6184 24.843 26.4179C25.1751 26.2634 25.4012 26.0643 25.5484 25.8298C25.6025 25.7437 25.6451 25.6539 25.6774 25.5619H22.3162V24.967C22.3162 24.5747 22.1908 24.3154 21.9779 24.1305C21.9031 24.0655 21.8219 24.0145 21.7419 23.977C21.7344 23.9734 21.7271 23.9701 21.7201 23.9671H18.2799C18.2729 23.9701 18.2656 23.9734 18.2581 23.977C18.178 24.0145 18.0969 24.0655 18.0221 24.1305C17.8092 24.3154 17.6838 24.5747 17.6838 24.967V25.5619H14.3226C14.3548 25.6539 14.3975 25.7437 14.4515 25.8298C14.5988 26.0643 14.8248 26.2634 15.157 26.4179C15.5881 26.6184 16.1737 26.7311 16.9337 26.7311H17.5277V27.326C17.5277 27.3835 17.5276 27.4314 17.5271 27.5224C17.5249 27.9965 17.5319 28.155 17.571 28.3426C17.6337 28.6435 17.7968 28.9554 18.1748 29.4464L18.3088 29.6205L18.2976 29.84C18.2948 29.8942 18.2911 29.9521 18.2859 30.0236L18.2789 30.1174L18.2717 30.2125C18.2416 30.6132 18.2346 30.8535 18.2552 31.1021C18.2889 31.5104 18.399 31.8054 18.6012 32.0071C18.8569 32.2621 19.2989 32.4129 20 32.4142Z" fill="#7C9B32"/>
</svg>
