<svg width="40" height="40" viewBox="0 0 40 40" fill="none" xmlns="http://www.w3.org/2000/svg">
<g id="Icons/note_alt">
<g id="Vector">
<path d="M31.6667 6.66634H24.7C24 4.73301 22.1667 3.33301 20 3.33301C17.8333 3.33301 16 4.73301 15.3 6.66634H8.33333C6.5 6.66634 5 8.16634 5 9.99967V33.333C5 35.1663 6.5 36.6663 8.33333 36.6663H31.6667C33.5 36.6663 35 35.1663 35 33.333V9.99967C35 8.16634 33.5 6.66634 31.6667 6.66634ZM20 6.24967C20.6833 6.24967 21.25 6.81634 21.25 7.49967C21.25 8.18301 20.6833 8.74967 20 8.74967C19.3167 8.74967 18.75 8.18301 18.75 7.49967C18.75 6.81634 19.3167 6.24967 20 6.24967ZM31.6667 33.333H8.33333V9.99967H31.6667V33.333Z" fill="#7C9B32"/>
<path d="M25.1333 20.0497L21.6 16.5163L11.6667 26.433V29.9997H15.1667L25.1333 20.0497Z" fill="#7C9B32"/>
<path d="M28.0833 17.1163C28.4167 16.783 28.4167 16.2663 28.0833 15.933L25.7333 13.583C25.4 13.2497 24.8833 13.2497 24.55 13.583L22.7833 15.3497L26.3167 18.883L28.0833 17.1163Z" fill="#7C9B32"/>
</g>
</g>
</svg>
